HIERARCHY
ROOT Hips
{
	OFFSET -3.958830 18.904000 13.208200
	CHANNELS 6 Xposition Yposition Zposition Zrotation Yrotation Xrotation 
	JOINT LHipJoint
	{
		OFFSET 0.000000 0.000000 0.000000
		CHANNELS 3 Zrotation Yrotation Xrotation
		JOINT LeftUpLeg
		{
			OFFSET 1.800000 -1.400000 0.085000
			CHANNELS 3 Zrotation Yrotation Xrotation
			JOINT LeftLeg
			{
				OFFSET 2.215000 -6.000000 0.000000
				CHANNELS 3 Zrotation Yrotation Xrotation
				JOINT LeftFoot
				{
					OFFSET 2.500000 -6.900000 0.000000
					CHANNELS 3 Zrotation Yrotation Xrotation
					JOINT LeftToeBase
					{
						OFFSET 0.200000 -0.500000 1.950000
						CHANNELS 3 Zrotation Yrotation Xrotation
						End Site
						{
							OFFSET 0.000000 0.000000 0.000000
						}
					}
				}
			}
		}
	}
	JOINT RHipJoint
	{
		OFFSET 0.000000 0.000000 0.000000
		CHANNELS 3 Zrotation Yrotation Xrotation
		JOINT RightUpLeg
		{
			OFFSET -1.800000 -1.400000 0.085000
			CHANNELS 3 Zrotation Yrotation Xrotation
			JOINT RightLeg
			{
				OFFSET -2.215000 -6.000000 0.000000
				CHANNELS 3 Zrotation Yrotation Xrotation
				JOINT RightFoot
				{
					OFFSET -2.500000 -6.900000 0.000000
					CHANNELS 3 Zrotation Yrotation Xrotation
					JOINT RightToeBase
					{
						OFFSET -0.200000 -0.500000 1.950000
						CHANNELS 3 Zrotation Yrotation Xrotation
						End Site
						{
							OFFSET 0.000000 0.000000 0.000000
						}
					}
				}
			}
		}
	}
	JOINT LowerBack
	{
		OFFSET 0.000000 0.000000 0.000000
		CHANNELS 3 Zrotation Yrotation Xrotation
		JOINT Spine
		{
			OFFSET -0.087000 1.940000 -0.288900
			CHANNELS 3 Zrotation Yrotation Xrotation
			JOINT Spine1
			{
				OFFSET 0.000000 1.950000 0.060000
				CHANNELS 3 Zrotation Yrotation Xrotation
				JOINT Neck
				{
					OFFSET 0.000000 0.000000 0.000000
					CHANNELS 3 Zrotation Yrotation Xrotation
					JOINT Neck1
					{
						OFFSET 0.000000 1.600000 0.340000
						CHANNELS 3 Zrotation Yrotation Xrotation
						JOINT Head
						{
							OFFSET 0.000000 1.667000 -0.240000
							CHANNELS 3 Zrotation Yrotation Xrotation
							End Site
							{
								OFFSET 0.000000 0.000000 0.000000
							}
						}
					}
				}
				JOINT LeftShoulder
				{
					OFFSET 0.000000 0.000000 0.000000
					CHANNELS 3 Zrotation Yrotation Xrotation
					JOINT LeftArm
					{
						OFFSET 2.700000 1.550000 -0.730000
						CHANNELS 3 Zrotation Yrotation Xrotation
						JOINT LeftForeArm
						{
							OFFSET 5.450000 0.000000 0.000000
							CHANNELS 3 Zrotation Yrotation Xrotation
							JOINT LeftHand
							{
								OFFSET 3.450000 0.000000 0.000000
								CHANNELS 3 Zrotation Yrotation Xrotation
								JOINT LeftHandIndex1
								{
									OFFSET 0.750000 0.000000 0.000000
									CHANNELS 3 Zrotation Yrotation Xrotation
									End Site
									{
										OFFSET 0.000000 0.000000 0.000000
									}
								}
							}
						}
					}
				}
				JOINT RightShoulder
				{
					OFFSET 0.000000 0.000000 0.000000
					CHANNELS 3 Zrotation Yrotation Xrotation
					JOINT RightArm
					{
						OFFSET -2.700000 1.550000 -0.730000
						CHANNELS 3 Zrotation Yrotation Xrotation
						JOINT RightForeArm
						{
							OFFSET -5.450000 0.000000 0.000000
							CHANNELS 3 Zrotation Yrotation Xrotation
							JOINT RightHand
							{
								OFFSET -3.450000 0.000000 0.000000
								CHANNELS 3 Zrotation Yrotation Xrotation
								JOINT RightHandIndex1
								{
									OFFSET -0.750000 0.000000 0.000000
									CHANNELS 3 Zrotation Yrotation Xrotation
									End Site
									{
										OFFSET 0.000000 0.000000 0.000000
									}
								}
							}
						}
					}
				}
			}
		}
	}
}
MOTION
Frames: 13
Frame Time: 0.016667
0.181200 16.515850 -1.232530 -4.096910 -2.404404 0.115238 -15.116851 12.834037 3.752419 10.000792 -3.834530 -19.639215 -18.783730 14.558341 32.353138 0.100567 8.728205 1.881539 0.380470 -0.233270 0.178760 18.253428 -10.409004 2.979343 -6.232027 5.268655 -19.502521 14.886429 -12.611546 35.794502 -1.053443 -6.659651 2.264732 -0.170040 0.710930 0.552270 -3.596987 -1.777270 -8.315312 10.776192 -1.132248 15.702913 -4.473710 0.911801 1.551661 3.661753 -1.690185 -10.793111 -4.486377 3.466491 35.988959 -4.117820 2.788780 -10.232080 -27.167166 -13.340853 4.809529 -42.631115 -1.777837 -4.393078 -4.792960 -19.520038 -1.681490 -3.865143 2.763628 0.949460 0.316620 -0.041750 0.461730 19.714016 16.423782 7.495551 49.111344 6.178759 -6.629627 4.953869 21.691383 -0.372805 1.763963 -1.253525 -0.343280 0.393840 0.115840 -0.221310 
0.182600 16.502410 -1.235590 -4.129859 -2.399051 0.038481 -15.126328 12.802556 3.788858 10.330504 -3.890580 -19.822446 -19.212405 14.853081 32.628435 0.121658 8.859482 1.832640 0.387460 -0.230710 0.187170 18.250374 -10.358885 2.988065 -6.470132 5.365681 -19.650863 15.276403 -12.889644 36.132977 -1.082397 -6.758699 2.228947 -0.169050 0.703810 0.554010 -3.581115 -1.817099 -8.351779 10.804136 -1.171093 16.023886 -4.483046 0.934206 1.439071 3.688301 -1.726906 -10.800665 -4.577679 3.454559 35.978919 -4.076790 2.748690 -10.689580 -27.013617 -13.221469 4.736525 -42.433144 -1.786521 -4.427166 -4.750716 -19.696349 -1.689332 -3.858518 2.760557 0.962830 0.308930 -0.035060 0.460500 19.507673 16.327606 7.519507 48.799077 6.011621 -6.770612 5.067324 22.057946 -0.343722 1.757486 -1.248769 -0.344540 0.394660 0.114770 -0.226540 
0.184210 16.476340 -1.239570 -4.136810 -2.395805 -0.026194 -15.145961 12.731128 3.860324 10.901027 -3.996296 -20.220707 -20.073375 15.433779 33.115773 0.170539 9.105999 1.739135 0.389770 -0.230270 0.189900 18.245249 -10.262624 3.004515 -6.971382 5.547167 -20.005739 16.017372 -13.410157 36.731527 -1.129940 -6.948499 2.155366 -0.169260 0.692940 0.559950 -3.549787 -1.876254 -8.416283 10.775428 -1.198854 16.489417 -4.486158 0.987658 1.235659 3.732535 -1.743204 -10.799242 -4.633912 3.369584 35.805366 -4.174970 2.712910 -11.193220 -26.794526 -12.991193 4.611730 -41.842416 -1.706413 -4.443752 -4.764767 -19.847581 -1.669911 -3.854966 2.765850 0.973220 0.301050 -0.027490 0.455140 19.202758 16.104225 7.553350 48.197837 5.608718 -7.060373 5.255868 22.822292 -0.297657 1.748061 -1.247866 -0.342420 0.387870 0.118860 -0.231100 
0.187310 16.441280 -1.243350 -4.205797 -2.383342 -0.086917 -15.167646 12.630376 3.951577 11.710907 -4.106267 -20.732712 -21.186532 16.208501 33.726041 0.237758 9.427783 1.625521 0.395130 -0.228340 0.196640 18.244854 -10.134395 3.030361 -7.562479 5.798492 -20.487349 16.959486 -14.108113 37.557152 -1.194540 -7.204743 2.065711 -0.168180 0.683830 0.562600 -3.524191 -1.941365 -8.497946 10.887375 -1.266517 17.044631 -4.541206 1.041807 0.953418 3.789496 -1.793543 -10.775273 -4.748991 3.254645 35.522047 -4.295180 2.647690 -11.745060 -26.529883 -12.618918 4.432725 -41.060091 -1.534492 -4.496693 -4.656928 -20.116540 -1.655913 -3.849063 2.765259 0.985210 0.293350 -0.020500 0.453610 18.814997 15.748067 7.584428 47.324808 5.017709 -7.446524 5.532402 23.893938 -0.224670 1.734392 -1.247131 -0.343330 0.385990 0.117820 -0.236300 
0.190620 16.400410 -1.248830 -4.299453 -2.349980 -0.195181 -15.191152 12.509014 4.065961 12.680510 -4.242670 -21.368497 -22.454437 17.166526 34.535062 0.321413 9.823535 1.493303 0.391870 -0.237070 0.207910 18.247703 -9.980385 3.061234 -8.201047 6.083149 -21.018915 18.015088 -14.925039 38.512499 -1.267132 -7.491962 1.967355 -0.172200 0.679060 0.553430 -3.502336 -2.022392 -8.597648 11.072897 -1.405810 17.757404 -4.614423 1.074007 0.583976 3.801648 -1.948150 -10.722626 -5.077288 3.167856 35.316501 -4.340970 2.516110 -12.389810 -26.376257 -12.169528 4.213294 -39.985192 -1.244734 -4.562772 -4.514706 -20.437115 -1.637295 -3.846306 2.746991 0.997950 0.282440 -0.018460 0.443670 18.622112 15.373293 7.592096 46.056306 4.367986 -7.753596 5.757790 24.741506 -0.121623 1.725938 -1.229777 -0.351960 0.399490 0.123820 -0.244510 
0.194180 16.352640 -1.254240 -4.429883 -2.310492 -0.192599 -15.215291 12.351193 4.191952 13.763898 -4.373259 -22.160663 -23.866184 18.224751 35.322899 0.401535 10.253903 1.353893 0.383860 -0.254020 0.215900 18.258823 -9.806513 3.097936 -8.895246 6.393012 -21.717602 19.183450 -15.839613 39.482305 -1.341649 -7.809104 1.862232 -0.173010 0.684310 0.544640 -3.493233 -2.078293 -8.693794 11.349110 -1.556274 18.341004 -4.742295 1.091820 0.253222 3.822825 -2.085692 -10.575168 -5.310642 3.087634 34.796091 -4.496250 2.442130 -12.939200 -26.117347 -11.565080 3.918212 -38.853296 -1.028375 -4.579933 -4.287021 -20.769106 -1.626080 -3.855941 2.722219 1.010430 0.280590 -0.023660 0.435460 18.294404 14.795801 7.515715 44.810296 3.764299 -8.056334 5.678551 25.693808 -0.058027 1.709289 -1.213492 -0.370940 0.418740 0.134130 -0.255440 
0.197100 16.300220 -1.259370 -4.429740 -2.283708 -0.151420 -15.244078 12.182733 4.317752 14.708931 -4.516279 -22.977380 -25.298985 19.316386 36.103092 0.478120 10.685401 1.220865 0.369070 -0.277530 0.213660 18.268012 -9.621950 3.145151 -9.782703 6.695397 -22.544532 20.464856 -16.876953 40.512309 -1.423450 -8.166658 1.745839 -0.172680 0.700330 0.534760 -3.474782 -2.133650 -8.791064 11.426368 -1.662165 18.887520 -4.818399 1.121882 -0.057372 3.804153 -2.244676 -10.437002 -5.559164 3.037041 34.168190 -4.573390 2.337510 -13.415820 -25.823727 -10.981849 3.644778 -37.628094 -0.724662 -4.614923 -3.848014 -21.180519 -1.645140 -3.869905 2.692108 1.025120 0.283400 -0.033080 0.431050 18.028085 14.265826 7.445008 43.462117 3.163123 -8.251545 5.426339 26.304991 -0.011549 1.690377 -1.193246 -0.398750 0.446150 0.150310 -0.264890 
0.199800 16.248110 -1.264090 -4.413387 -2.259931 -0.172387 -15.277826 12.018812 4.442794 15.690222 -4.614710 -23.686218 -26.793790 20.435590 36.777294 0.557244 11.093449 1.093147 0.365650 -0.286700 0.221900 18.271563 -9.432343 3.199128 -10.711116 6.978075 -23.325444 21.820957 -17.976025 41.493325 -1.515493 -8.532448 1.629402 -0.167870 0.702660 0.527650 -3.440747 -2.198850 -8.896631 11.387349 -1.747325 19.519870 -4.877422 1.158866 -0.365766 3.843836 -2.230173 -10.316043 -5.505040 2.957834 33.726558 -4.774730 2.381980 -14.080020 -25.655973 -10.504835 3.411095 -36.201670 -0.391489 -4.587079 -3.216414 -21.312460 -1.675654 -3.876658 2.665678 1.042720 0.281800 -0.033080 0.426730 17.777912 13.734265 7.361780 42.086772 2.567260 -8.452253 4.792021 26.949119 -0.024633 1.670916 -1.177308 -0.419150 0.464660 0.156430 -0.276830 
0.200240 16.194810 -1.268600 -4.398330 -2.285094 -0.248238 -15.314245 11.872702 4.563963 16.677039 -4.661308 -24.287971 -28.252043 21.529640 37.331921 0.637042 11.470788 0.983946 0.359460 -0.303540 0.240100 18.269446 -9.250349 3.252616 -11.553038 7.242665 -24.024353 23.026258 -19.016380 42.444093 -1.602485 -8.870065 1.528707 -0.171050 0.706350 0.515850 -3.393636 -2.277375 -9.005259 11.247212 -1.777710 20.177498 -4.850158 1.240187 -0.591125 3.878196 -2.143226 -10.320355 -5.376945 2.808296 33.539977 -5.087440 2.436710 -14.543700 -25.546774 -10.313452 3.316171 -34.644035 0.053866 -4.528518 -2.483005 -21.218394 -1.719054 -3.883851 2.628024 1.060270 0.280510 -0.035140 0.418370 17.613720 13.461615 7.394011 40.612547 1.837682 -8.619035 3.918197 27.302828 -0.081947 1.655652 -1.154528 -0.440860 0.487590 0.160820 -0.291430 
0.199180 16.141700 -1.273160 -4.379056 -2.294016 -0.427815 -15.348921 11.747064 4.675092 17.613923 -4.686303 -24.779192 -29.540947 22.593071 37.953810 0.726449 11.813895 0.878616 0.360810 -0.304280 0.252700 18.265501 -9.080088 3.303858 -12.345559 7.469064 -24.617492 24.116717 -20.037850 43.405934 -1.694530 -9.199793 1.424543 -0.171560 0.697630 0.514060 -3.345896 -2.367579 -9.109903 11.089081 -1.833883 20.930504 -4.807059 1.300098 -0.798064 3.891940 -2.104155 -10.361361 -5.365332 2.730120 33.529814 -5.253510 2.471250 -15.009920 -25.508314 -10.196599 3.255228 -32.913181 0.507165 -4.407814 -1.768158 -20.919919 -1.744845 -3.885035 2.614964 1.068800 0.273200 -0.027620 0.411590 17.569058 13.300530 7.457475 38.859573 1.119496 -8.631889 3.184579 27.321873 -0.101572 1.650950 -1.141942 -0.442890 0.492880 0.161900 -0.298110 
0.197900 16.087300 -1.274680 -4.357749 -2.300985 -0.592190 -15.379318 11.620518 4.777637 18.504478 -4.683008 -25.204100 -30.839436 23.644301 38.476508 0.815899 12.124717 0.785634 0.367550 -0.295520 0.261600 18.265844 -8.918209 3.355607 -13.117958 7.666920 -25.212802 25.157442 -21.052121 44.333628 -1.784948 -9.522551 1.325614 -0.167450 0.689920 0.511070 -3.310362 -2.441097 -9.204496 10.960849 -1.873425 21.552731 -4.739462 1.355646 -0.909026 3.849253 -2.122178 -10.409184 -5.453746 2.706168 33.498332 -5.188370 2.441940 -15.322260 -25.388928 -10.091629 3.211555 -31.257029 0.904486 -4.269182 -0.916145 -20.608677 -1.783686 -3.882639 2.609046 1.072280 0.265980 -0.021560 0.410080 17.558932 13.171553 7.533593 37.005894 0.430118 -8.486924 2.391717 26.905632 -0.133301 1.652392 -1.135202 -0.441420 0.495480 0.157850 -0.299830 
0.198130 16.031370 -1.276040 -4.393433 -2.219495 -0.792535 -15.407962 11.498535 4.882384 19.415678 -4.687440 -25.633457 -32.088014 24.677938 39.003255 0.897290 12.419931 0.690356 0.378570 -0.286850 0.271620 18.266639 -8.765558 3.400161 -13.817891 7.809458 -25.710388 26.153295 -22.042989 45.147416 -1.871581 -9.824374 1.230531 -0.162430 0.672600 0.515760 -3.278112 -2.512524 -9.296649 10.911495 -1.948042 22.187969 -4.713671 1.394390 -0.981824 3.836833 -2.051505 -10.484620 -5.396322 2.625557 33.536009 -5.179190 2.417360 -15.583930 -25.324676 -10.096184 3.199026 -29.452836 1.250335 -4.028742 -0.275979 -19.994564 -1.787845 -3.881801 2.617401 1.077050 0.257450 -0.014150 0.406090 17.535858 13.067646 7.641831 35.155309 -0.359115 -8.385911 1.404753 26.620435 -0.192507 1.647872 -1.138765 -0.434440 0.484050 0.155420 -0.306440 
0.197110 15.976480 -1.276670 -4.380133 -2.064116 -1.011311 -15.431621 11.385035 4.975191 20.199762 -4.736422 -26.032793 -33.170301 25.640127 39.576667 0.983806 12.670703 0.611509 0.403870 -0.256760 0.286160 18.269759 -8.626351 3.443356 -14.526678 7.873400 -26.152547 27.173315 -23.043047 45.861889 -1.958597 -10.112977 1.142587 -0.150850 0.649890 0.517320 -3.255438 -2.579226 -9.377890 10.830955 -2.083473 22.766433 -4.653911 1.347420 -1.002688 3.743816 -2.091079 -10.557479 -5.538799 2.600967 33.552998 -4.891790 2.299480 -15.794910 -25.261799 -10.101204 3.214319 -27.621595 1.626851 -3.794171 0.362349 -19.398528 -1.776779 -3.867671 2.638371 1.073710 0.244090 -0.004430 0.408240 17.681331 13.019331 7.737938 33.136023 -1.016806 -8.100054 0.388791 25.889541 -0.259904 1.657008 -1.151878 -0.416610 0.466920 0.138510 -0.305480 
